<?xml version="1.0" encoding="utf-8"?>
<!-- Generator: Adobe Illustrator 19.1.0, SVG Export Plug-In . SVG Version: 6.00 Build 0)  -->
<!DOCTYPE svg PUBLIC "-//W3C//DTD SVG 1.1//EN" "http://www.w3.org/Graphics/SVG/1.1/DTD/svg11.dtd">
<svg version="1.1" xmlns="http://www.w3.org/2000/svg" xmlns:xlink="http://www.w3.org/1999/xlink" x="0px" y="0px"
	 viewBox="0 0 100 100" style="enable-background:new 0 0 100 100;" xml:space="preserve">
<style type="text/css">
	.st0{display:none;}
	.st1{display:inline;fill:#002A38;}
	.st2{fill:#D9F0FA;}
	.st3{fill:none;stroke:#D9F0FA;stroke-width:4;stroke-linecap:round;stroke-linejoin:round;stroke-miterlimit:10;}
</style>
<g id="Layer_3" class="st0">
	<rect y="-0.5" class="st1" width="100" height="100.5"/>
</g>
<g id="Layer_1">
	<g>
		<rect x="25" y="69.6" class="st2" width="49.1" height="3.8"/>
		<path class="st2" d="M49.8,32.4L32.3,43.9v22.7h35V43.9L49.8,32.4z M50.5,61.7V65h-2v-3.2c-1.8,0-3.7-0.6-4.8-1.4l0.8-2.1
			c1.1,0.8,2.8,1.3,4.5,1.3c2.2,0,3.7-1.3,3.7-3.1c0-1.7-1.2-2.8-3.5-3.7c-3.2-1.3-5.2-2.7-5.2-5.4c0-2.6,1.8-4.6,4.7-5v-3.2h1.9v3
			c1.9,0.1,3.2,0.6,4.1,1.1L54,45.5c-0.7-0.4-1.9-1.1-3.9-1.1c-2.4,0-3.3,1.4-3.3,2.7c0,1.6,1.2,2.4,3.9,3.6
			c3.2,1.3,4.8,2.9,4.8,5.7C55.5,58.9,53.7,61.2,50.5,61.7z"/>
		<g>
			<polygon class="st2" points="72.8,44.8 49.7,29.4 26.3,44.8 25,42.8 49.7,26.6 74.1,42.8 			"/>
		</g>
	</g>
</g>
<g id="Layer_2">
</g>
</svg>
