<?xml version="1.0" encoding="utf-8"?>
<!-- Generator: Adobe Illustrator 19.1.0, SVG Export Plug-In . SVG Version: 6.00 Build 0)  -->
<!DOCTYPE svg PUBLIC "-//W3C//DTD SVG 1.1//EN" "http://www.w3.org/Graphics/SVG/1.1/DTD/svg11.dtd">
<svg version="1.1" xmlns="http://www.w3.org/2000/svg" xmlns:xlink="http://www.w3.org/1999/xlink" x="0px" y="0px"
	 viewBox="0 0 100 100" style="enable-background:new 0 0 100 100;" xml:space="preserve">
<style type="text/css">
	.st0{display:none;}
	.st1{display:inline;fill:#002A38;}
	.st2{fill:#D9F0FA;}
	.st3{fill:none;stroke:#D9F0FA;stroke-width:4;stroke-linecap:round;stroke-linejoin:round;stroke-miterlimit:10;}
</style>
<g id="Layer_3" class="st0">
	<rect class="st1" width="100" height="100"/>
</g>
<g id="Layer_1">
	<g>
		<path class="st2" d="M50,32.7c-13.7,0-24.7,11.1-24.7,24.7c0,11.2,7.4,4,17.6,1.1c0-0.3-0.1-0.7-0.1-1c0-3.8,3.1-7,7-7
			c1.3,0,2.5,0.4,3.6,1l9.1-9.1c0.7-0.7,1.7-0.7,2.4,0c0.7,0.7,0.7,1.7,0,2.4L55.8,54c0.6,1.1,1,2.3,1,3.6c0,0.3,0,0.6-0.1,0.9
			c10.4,2.9,18,10.3,18-1C74.7,43.8,63.7,32.7,50,32.7z"/>
		<path class="st2" d="M50.8,54.2c-0.3-0.1-0.6-0.2-1-0.2c-2,0-3.6,1.6-3.6,3.6c0,2,1.6,3.6,3.6,3.6c2,0,3.6-1.6,3.6-3.6
			c0-0.4-0.1-0.7-0.2-1l-1.1,1.1c-0.3,0.3-0.8,0.5-1.2,0.5c-0.4,0-0.9-0.2-1.2-0.5c-0.7-0.7-0.7-1.7,0-2.4L50.8,54.2z"/>
	</g>
</g>
<g id="Layer_2">
</g>
</svg>
