<?xml version="1.0" encoding="utf-8"?>
<!-- Generator: Adobe Illustrator 19.1.0, SVG Export Plug-In . SVG Version: 6.00 Build 0)  -->
<!DOCTYPE svg PUBLIC "-//W3C//DTD SVG 1.1//EN" "http://www.w3.org/Graphics/SVG/1.1/DTD/svg11.dtd">
<svg version="1.1" xmlns="http://www.w3.org/2000/svg" xmlns:xlink="http://www.w3.org/1999/xlink" x="0px" y="0px"
	 viewBox="0 0 100 100" style="enable-background:new 0 0 100 100;" xml:space="preserve">
<style type="text/css">
	.st0{display:none;}
	.st1{display:inline;fill:#002A38;}
	.st2{fill:#D9F0FA;}
	.st3{fill:none;stroke:#D9F0FA;stroke-width:4;stroke-linecap:round;stroke-linejoin:round;stroke-miterlimit:10;}
</style>
<g id="Layer_3" class="st0">
	<rect class="st1" width="100" height="100.3"/>
</g>
<g id="Layer_1">
</g>
<g id="Layer_2">
	<path class="st2" d="M29.5,28.9v51.8l7.5-3.1l6,3.1l6.8-3.4l6.5,3.4l6.9-3.4l6.6,3.4V28.9H29.5z M58.1,42.6c-2.6-1-4.2-2.2-4.1-4.4
		c0-2.1,1.5-3.7,3.8-4l0-2.5l1.6,0l0,2.4c1.5,0.1,2.5,0.5,3.3,0.9L62,36.7c-0.5-0.3-1.6-0.9-3.2-0.9c-1.9,0-2.7,1.1-2.7,2.2
		c0,1.3,0.9,2,3.1,2.9c2.6,1.1,3.9,2.4,3.9,4.6c0,2-1.4,3.9-4,4.3l0,2.6l-1.6,0l0-2.5c-1.5,0-3-0.5-3.9-1.1l0.6-1.7
		c0.9,0.6,2.2,1.1,3.6,1.1c1.8,0,3-1,3-2.5C61,44.3,60,43.4,58.1,42.6z M66,71.5H33.4v-5H66V71.5z M66,62.5H33.4v-5H66V62.5z"/>
</g>
</svg>
