<?xml version="1.0" encoding="UTF-8"?>
<svg width="24px" height="24px" viewBox="0 0 24 24" version="1.1" xmlns="http://www.w3.org/2000/svg" xmlns:xlink="http://www.w3.org/1999/xlink">
    <!-- Generator: Sketch 51.2 (57519) - http://www.bohemiancoding.com/sketch -->
    <title>ic_person</title>
    <desc>Created with Sketch.</desc>
    <defs></defs>
    <g id="Workspace" stroke="none" stroke-width="1" fill="none" fill-rule="evenodd">
        <g id="Contact_detail_profil_edit" transform="translate(-233.000000, -175.000000)" fill="#414042">
            <path d="M245,175.96 C242.0888,175.96 239.72,178.32928 239.72,181.24144 C239.72,184.15312 242.0888,186.52144 245,186.52144 C247.9112,186.52144 250.28,184.15312 250.28,181.24144 C250.28,178.32928 247.9112,175.96 245,175.96 M245,187.48144 C241.55936,187.48144 238.76,184.68256 238.76,181.24144 C238.76,177.79984 241.55936,175 245,175 C248.44064,175 251.24,177.79984 251.24,181.24144 C251.24,184.68256 248.44064,187.48144 245,187.48144 M245,188.92048 C241.25264,188.92048 233.96,190.78432 233.96,194.20048 L233.96,197.56 C233.96,197.82448 234.17504,198.04 234.44,198.04 L255.56,198.04 C255.82496,198.04 256.04,197.82448 256.04,197.56 L256.04,194.20048 C256.04,192.23248 253.52336,190.93072 252.02336,190.32976 C249.59312,189.35632 246.74528,188.92048 245,188.92048 M255.56,199 L234.44,199 C233.64608,199 233,198.35392 233,197.56 L233,194.20048 C233,189.75616 241.46864,187.96048 245,187.96048 C248.53136,187.96048 257,189.75616 257,194.20048 L257,197.56 C257,198.35392 256.35392,199 255.56,199" id="ic_person"></path>
        </g>
    </g>
</svg>