<?xml version="1.0" encoding="utf-8"?>
<!-- Generator: Adobe Illustrator 19.1.0, SVG Export Plug-In . SVG Version: 6.00 Build 0)  -->
<!DOCTYPE svg PUBLIC "-//W3C//DTD SVG 1.1//EN" "http://www.w3.org/Graphics/SVG/1.1/DTD/svg11.dtd">
<svg version="1.1" xmlns="http://www.w3.org/2000/svg" xmlns:xlink="http://www.w3.org/1999/xlink" x="0px" y="0px"
	 viewBox="0 0 100 100" style="enable-background:new 0 0 100 100;" xml:space="preserve">
<style type="text/css">
	.st0{display:none;}
	.st1{display:inline;fill:#002A38;}
	.st2{fill:#D9F0FA;}
	.st3{fill:none;stroke:#D9F0FA;stroke-width:4;stroke-linecap:round;stroke-linejoin:round;stroke-miterlimit:10;}
</style>
<g id="Layer_3" class="st0">
	<rect y="0" class="st1" width="100" height="100"/>
</g>
<g id="Layer_1">
</g>
<g id="Layer_2">
	<path class="st2" d="M36.7,25.2l-8.7,8.3c-0.8,0.7-0.9,1.9-0.4,2.8l19.4,32.3c0.7,1.2,2.5,1.5,3.5,0.4l20.7-20.7
		c1-1,0.8-2.7-0.4-3.5L39.5,24.9C38.6,24.4,37.5,24.5,36.7,25.2z M35.5,35.9c-1.4,0-2.5-1.1-2.5-2.5c0-1.4,1.1-2.5,2.5-2.5
		c1.4,0,2.5,1.1,2.5,2.5C38,34.8,36.9,35.9,35.5,35.9z M53.2,52.6c-1.1,1-2.4,1.7-3.5,1.9L49,52.9c1.1-0.2,2.3-0.8,3.3-1.8
		c1.3-1.3,1.4-2.8,0.4-3.9c-1-1-2.3-0.9-4.1-0.1c-2.5,1.1-4.5,1.4-6-0.2c-1.5-1.5-1.5-3.7-0.2-5.5l-1.8-1.8l1.1-1.1l1.7,1.7
		c1.1-1,2.1-1.5,2.9-1.7l0.7,1.6c-0.6,0.2-1.7,0.5-2.9,1.6c-1.4,1.4-1.1,2.7-0.4,3.4c0.9,0.9,2,0.7,4.2-0.2c2.6-1.1,4.4-1.1,6,0.5
		c1.4,1.4,1.7,3.7,0.2,5.8l1.8,1.9L55,54.4L53.2,52.6z"/>
</g>
</svg>
